<svg xmlns="http://www.w3.org/2000/svg" version="1.1" xmlns:xlink="http://www.w3.org/1999/xlink" width="512" height="512" x="0" y="0" viewBox="0 0 64 64" style="enable-background:new 0 0 512 512" xml:space="preserve" class=""><g><path d="M32 44.38c-.94.02-.94 1.41 0 1.43.94-.02.94-1.41 0-1.43zm0-5.12c-.94.02-.94 1.42 0 1.43.94-.01.94-1.41 0-1.43zm0-5.12c-.94.02-.94 1.41 0 1.43.94-.02.94-1.41 0-1.43zm0-5.12c-.94.02-.94 1.42 0 1.43.94-.01.94-1.41 0-1.43zm0-5.11c-.94.01-.94 1.41 0 1.43.94-.02.94-1.42 0-1.43zm0 0c-.94.01-.94 1.41 0 1.43.94-.02.94-1.42 0-1.43zm0 5.11c-.94.02-.94 1.42 0 1.43.94-.01.94-1.41 0-1.43zm0 5.12c-.94.02-.94 1.41 0 1.43.94-.02.94-1.41 0-1.43zm0 5.12c-.94.02-.94 1.42 0 1.43.94-.01.94-1.41 0-1.43zm0 5.12c-.94.02-.94 1.41 0 1.43.94-.02.94-1.41 0-1.43zm0 0c-.94.02-.94 1.41 0 1.43.94-.02.94-1.41 0-1.43zm0-5.12c-.94.02-.94 1.42 0 1.43.94-.01.94-1.41 0-1.43zm0-5.12c-.94.02-.94 1.41 0 1.43.94-.02.94-1.41 0-1.43zm0-5.12c-.94.02-.94 1.42 0 1.43.94-.01.94-1.41 0-1.43zm0-5.11c-.94.01-.94 1.41 0 1.43.94-.02.94-1.42 0-1.43zm0 0c-.94.01-.94 1.41 0 1.43.94-.02.94-1.42 0-1.43zm0 5.11c-.94.02-.94 1.42 0 1.43.94-.01.94-1.41 0-1.43zm0 5.12c-.94.02-.94 1.41 0 1.43.94-.02.94-1.41 0-1.43zm0 5.12c-.94.02-.94 1.42 0 1.43.94-.01.94-1.41 0-1.43zm0 5.12c-.94.02-.94 1.41 0 1.43.94-.02.94-1.41 0-1.43zm0 0c-.94.02-.94 1.41 0 1.43.94-.02.94-1.41 0-1.43zm0-5.12c-.94.02-.94 1.42 0 1.43.94-.01.94-1.41 0-1.43zm0-5.12c-.94.02-.94 1.41 0 1.43.94-.02.94-1.41 0-1.43zm0-5.12c-.94.02-.94 1.42 0 1.43.94-.01.94-1.41 0-1.43zm0-5.11c-.94.01-.94 1.41 0 1.43.94-.02.94-1.42 0-1.43zm0 0c-.94.01-.94 1.41 0 1.43.94-.02.94-1.42 0-1.43zm0 5.11c-.94.02-.94 1.42 0 1.43.94-.01.94-1.41 0-1.43zm0 5.12c-.94.02-.94 1.41 0 1.43.94-.02.94-1.41 0-1.43zm0 5.12c-.94.02-.94 1.42 0 1.43.94-.01.94-1.41 0-1.43zm0 5.12c-.94.02-.94 1.41 0 1.43.94-.02.94-1.41 0-1.43zm0 0c-.94.02-.94 1.41 0 1.43.94-.02.94-1.41 0-1.43zm0-5.12c-.94.02-.94 1.42 0 1.43.94-.01.94-1.41 0-1.43zm0-5.12c-.94.02-.94 1.41 0 1.43.94-.02.94-1.41 0-1.43zm0-5.12c-.94.02-.94 1.42 0 1.43.94-.01.94-1.41 0-1.43zm0-5.11c-.94.01-.94 1.41 0 1.43.94-.02.94-1.42 0-1.43zm0 0c-.94.01-.94 1.41 0 1.43.94-.02.94-1.42 0-1.43zm0 5.11c-.94.02-.94 1.42 0 1.43.94-.01.94-1.41 0-1.43zm0 5.12c-.94.02-.94 1.41 0 1.43.94-.02.94-1.41 0-1.43zm0 5.12c-.94.02-.94 1.42 0 1.43.94-.01.94-1.41 0-1.43zm0 5.12c-.94.02-.94 1.41 0 1.43.94-.02.94-1.41 0-1.43zm0 0c-.94.02-.94 1.41 0 1.43.94-.02.94-1.41 0-1.43zm0-5.12c-.94.02-.94 1.42 0 1.43.94-.01.94-1.41 0-1.43zm0-5.12c-.94.02-.94 1.41 0 1.43.94-.02.94-1.41 0-1.43zm0-5.12c-.94.02-.94 1.42 0 1.43.94-.01.94-1.41 0-1.43zm0-5.11c-.94.01-.94 1.41 0 1.43.94-.02.94-1.42 0-1.43zm0 0c-.94.01-.94 1.41 0 1.43.94-.02.94-1.42 0-1.43zm0 5.11c-.94.02-.94 1.42 0 1.43.94-.01.94-1.41 0-1.43zm0 5.12c-.94.02-.94 1.41 0 1.43.94-.02.94-1.41 0-1.43zm0 5.12c-.94.02-.94 1.42 0 1.43.94-.01.94-1.41 0-1.43zm0 5.12c-.94.02-.94 1.41 0 1.43.94-.02.94-1.41 0-1.43zm0 0c-.94.02-.94 1.41 0 1.43.94-.02.94-1.41 0-1.43zm0-5.12c-.94.02-.94 1.42 0 1.43.94-.01.94-1.41 0-1.43zm0-5.12c-.94.02-.94 1.41 0 1.43.94-.02.94-1.41 0-1.43zm0-5.12c-.94.02-.94 1.42 0 1.43.94-.01.94-1.41 0-1.43zm0-5.11c-.94.01-.94 1.41 0 1.43.94-.02.94-1.42 0-1.43zm0 0c-.94.01-.94 1.41 0 1.43.94-.02.94-1.42 0-1.43zm0 5.11c-.94.02-.94 1.42 0 1.43.94-.01.94-1.41 0-1.43zm0 5.12c-.94.02-.94 1.41 0 1.43.94-.02.94-1.41 0-1.43zm0 5.12c-.94.02-.94 1.42 0 1.43.94-.01.94-1.41 0-1.43zm0 5.12c-.94.02-.94 1.41 0 1.43.94-.02.94-1.41 0-1.43zm0 0c-.94.02-.94 1.41 0 1.43.94-.02.94-1.41 0-1.43zm0-5.12c-.94.02-.94 1.42 0 1.43.94-.01.94-1.41 0-1.43zm0-5.12c-.94.02-.94 1.41 0 1.43.94-.02.94-1.41 0-1.43zm0-5.12c-.94.02-.94 1.42 0 1.43.94-.01.94-1.41 0-1.43zm0-5.11c-.94.01-.94 1.41 0 1.43.94-.02.94-1.42 0-1.43zm0 0c-.94.01-.94 1.41 0 1.43.94-.02.94-1.42 0-1.43zm0 5.11c-.94.02-.94 1.42 0 1.43.94-.01.94-1.41 0-1.43zm0 5.12c-.94.02-.94 1.41 0 1.43.94-.02.94-1.41 0-1.43zm0 5.12c-.94.02-.94 1.42 0 1.43.94-.01.94-1.41 0-1.43zm0 5.12c-.94.02-.94 1.41 0 1.43.94-.02.94-1.41 0-1.43zm0 0c-.94.02-.94 1.41 0 1.43.94-.02.94-1.41 0-1.43zm0-5.12c-.94.02-.94 1.42 0 1.43.94-.01.94-1.41 0-1.43zm0-5.12c-.94.02-.94 1.41 0 1.43.94-.02.94-1.41 0-1.43zm0-5.12c-.94.02-.94 1.42 0 1.43.94-.01.94-1.41 0-1.43zm0-5.11c-.94.01-.94 1.41 0 1.43.94-.02.94-1.42 0-1.43zm0 1.43c.94-.02.94-1.42 0-1.43-.94.01-.94 1.41 0 1.43zm0 3.68c-.94.02-.94 1.42 0 1.43.94-.01.94-1.41 0-1.43zm0 5.12c-.94.02-.94 1.41 0 1.43.94-.02.94-1.41 0-1.43zm0 5.12c-.94.02-.94 1.42 0 1.43.94-.01.94-1.41 0-1.43zm0 5.12c-.94.02-.94 1.41 0 1.43.94-.02.94-1.41 0-1.43zM32 0C14.33 0 0 14.33 0 32s14.33 32 32 32 32-14.33 32-32S49.67 0 32 0zm5 21.99c7.45 2.05 12.98 8.82 13.53 16.5-.22-.04-.45-.06-.67-.06H37zm-21.21-6.5 1.39-1.17c.53-.49 1.41.14 1.12.8-1.23 3.16-1.01 6.67.64 9.63-.08.07-.16.13-.24.2-1.82 1.64-3.24 3.49-4.38 5.59l-.88-1.52a10.69 10.69 0 0 1 2.35-13.53zM27 47H14.14c-1.17 0-2.14-.96-2.14-2.14V42c0-.92.59-1.71 1.42-2.01.22-.09.47-.13.72-.13H27zm0-8.57H14.14c-.23 0-.45.02-.67.06.34-4.33 2.16-8.34 5.13-11.45 2.28-2.38 5.13-4.13 8.4-5.05v16.44zm8.57 10c0 .78-.64 1.43-1.43 1.43h-4.28c-.79 0-1.43-.65-1.43-1.43V21.29c0-.79.64-1.43 1.43-1.43h4.28c.79 0 1.43.64 1.43 1.43zM52 44.86c0 1.18-.97 2.14-2.14 2.14H37v-7.14h12.86c.25 0 .5.04.72.13.83.3 1.42 1.09 1.42 2.01zm-1.44-15.84-.88 1.52c-1.15-2.12-2.56-3.96-4.39-5.59-.08-.06-.15-.13-.23-.19 1.65-2.97 1.87-6.47.64-9.64-.29-.66.59-1.29 1.12-.8l1.39 1.17a10.69 10.69 0 0 1 2.35 13.53zM32 23.91c-.94.01-.94 1.41 0 1.43.94-.02.94-1.42 0-1.43zm0 5.11c-.94.02-.94 1.42 0 1.43.94-.01.94-1.41 0-1.43zm0 5.12c-.94.02-.94 1.41 0 1.43.94-.02.94-1.41 0-1.43zm0 5.12c-.94.02-.94 1.42 0 1.43.94-.01.94-1.41 0-1.43zm0 5.12c-.94.02-.94 1.41 0 1.43.94-.02.94-1.41 0-1.43zm0 0c-.94.02-.94 1.41 0 1.43.94-.02.94-1.41 0-1.43zm0-5.12c-.94.02-.94 1.42 0 1.43.94-.01.94-1.41 0-1.43zm0-5.12c-.94.02-.94 1.41 0 1.43.94-.02.94-1.41 0-1.43zm0-5.12c-.94.02-.94 1.42 0 1.43.94-.01.94-1.41 0-1.43zm0-5.11c-.94.01-.94 1.41 0 1.43.94-.02.94-1.42 0-1.43zm0 0c-.94.01-.94 1.41 0 1.43.94-.02.94-1.42 0-1.43zm0 5.11c-.94.02-.94 1.42 0 1.43.94-.01.94-1.41 0-1.43zm0 5.12c-.94.02-.94 1.41 0 1.43.94-.02.94-1.41 0-1.43zm0 5.12c-.94.02-.94 1.42 0 1.43.94-.01.94-1.41 0-1.43zm0 5.12c-.94.02-.94 1.41 0 1.43.94-.02.94-1.41 0-1.43zm0 0c-.94.02-.94 1.41 0 1.43.94-.02.94-1.41 0-1.43zm0-5.12c-.94.02-.94 1.42 0 1.43.94-.01.94-1.41 0-1.43zm0-5.12c-.94.02-.94 1.41 0 1.43.94-.02.94-1.41 0-1.43zm0-5.12c-.94.02-.94 1.42 0 1.43.94-.01.94-1.41 0-1.43zm0-5.11c-.94.01-.94 1.41 0 1.43.94-.02.94-1.42 0-1.43zm0 0c-.94.01-.94 1.41 0 1.43.94-.02.94-1.42 0-1.43zm0 5.11c-.94.02-.94 1.42 0 1.43.94-.01.94-1.41 0-1.43zm0 5.12c-.94.02-.94 1.41 0 1.43.94-.02.94-1.41 0-1.43zm0 5.12c-.94.02-.94 1.42 0 1.43.94-.01.94-1.41 0-1.43zm0 5.12c-.94.02-.94 1.41 0 1.43.94-.02.94-1.41 0-1.43zm0 0c-.94.02-.94 1.41 0 1.43.94-.02.94-1.41 0-1.43zm0-5.12c-.94.02-.94 1.42 0 1.43.94-.01.94-1.41 0-1.43zm0-5.12c-.94.02-.94 1.41 0 1.43.94-.02.94-1.41 0-1.43zm0-5.12c-.94.02-.94 1.42 0 1.43.94-.01.94-1.41 0-1.43zm0-5.11c-.94.01-.94 1.41 0 1.43.94-.02.94-1.42 0-1.43zm0 0c-.94.01-.94 1.41 0 1.43.94-.02.94-1.42 0-1.43zm0 5.11c-.94.02-.94 1.42 0 1.43.94-.01.94-1.41 0-1.43zm0 5.12c-.94.02-.94 1.41 0 1.43.94-.02.94-1.41 0-1.43zm0 5.12c-.94.02-.94 1.42 0 1.43.94-.01.94-1.41 0-1.43zm0 5.12c-.94.02-.94 1.41 0 1.43.94-.02.94-1.41 0-1.43zm0 0c-.94.02-.94 1.41 0 1.43.94-.02.94-1.41 0-1.43zm0-5.12c-.94.02-.94 1.42 0 1.43.94-.01.94-1.41 0-1.43zm0-5.12c-.94.02-.94 1.41 0 1.43.94-.02.94-1.41 0-1.43zm0-5.12c-.94.02-.94 1.42 0 1.43.94-.01.94-1.41 0-1.43zm0-5.11c-.94.01-.94 1.41 0 1.43.94-.02.94-1.42 0-1.43zm0 0c-.94.01-.94 1.41 0 1.43.94-.02.94-1.42 0-1.43zm0 5.11c-.94.02-.94 1.42 0 1.43.94-.01.94-1.41 0-1.43zm0 5.12c-.94.02-.94 1.41 0 1.43.94-.02.94-1.41 0-1.43zm0 5.12c-.94.02-.94 1.42 0 1.43.94-.01.94-1.41 0-1.43zm0 5.12c-.94.02-.94 1.41 0 1.43.94-.02.94-1.41 0-1.43zm0 0c-.94.02-.94 1.41 0 1.43.94-.02.94-1.41 0-1.43zm0-5.12c-.94.02-.94 1.42 0 1.43.94-.01.94-1.41 0-1.43zm0-5.12c-.94.02-.94 1.41 0 1.43.94-.02.94-1.41 0-1.43zm0-5.12c-.94.02-.94 1.42 0 1.43.94-.01.94-1.41 0-1.43zm0-5.11c-.94.01-.94 1.41 0 1.43.94-.02.94-1.42 0-1.43zm0 0c-.94.01-.94 1.41 0 1.43.94-.02.94-1.42 0-1.43zm0 5.11c-.94.02-.94 1.42 0 1.43.94-.01.94-1.41 0-1.43zm0 5.12c-.94.02-.94 1.41 0 1.43.94-.02.94-1.41 0-1.43zm0 5.12c-.94.02-.94 1.42 0 1.43.94-.01.94-1.41 0-1.43zm0 5.12c-.94.02-.94 1.41 0 1.43.94-.02.94-1.41 0-1.43zm0 0c-.94.02-.94 1.41 0 1.43.94-.02.94-1.41 0-1.43zm0-5.12c-.94.02-.94 1.42 0 1.43.94-.01.94-1.41 0-1.43zm0-5.12c-.94.02-.94 1.41 0 1.43.94-.02.94-1.41 0-1.43zm0-5.12c-.94.02-.94 1.42 0 1.43.94-.01.94-1.41 0-1.43zm0-5.11c-.94.01-.94 1.41 0 1.43.94-.02.94-1.42 0-1.43zm0 0c-.94.01-.94 1.41 0 1.43.94-.02.94-1.42 0-1.43zm0 5.11c-.94.02-.94 1.42 0 1.43.94-.01.94-1.41 0-1.43zm0 5.12c-.94.02-.94 1.41 0 1.43.94-.02.94-1.41 0-1.43zm0 5.12c-.94.02-.94 1.42 0 1.43.94-.01.94-1.41 0-1.43zm0 5.12c-.94.02-.94 1.41 0 1.43.94-.02.94-1.41 0-1.43zm0 0c-.94.02-.94 1.41 0 1.43.94-.02.94-1.41 0-1.43zm0-5.12c-.94.02-.94 1.42 0 1.43.94-.01.94-1.41 0-1.43zm0-5.12c-.94.02-.94 1.41 0 1.43.94-.02.94-1.41 0-1.43zm0-5.12c-.94.02-.94 1.42 0 1.43.94-.01.94-1.41 0-1.43zm0-5.11c-.94.01-.94 1.41 0 1.43.94-.02.94-1.42 0-1.43zm0 0c-.94.01-.94 1.41 0 1.43.94-.02.94-1.42 0-1.43zm0 5.11c-.94.02-.94 1.42 0 1.43.94-.01.94-1.41 0-1.43zm0 5.12c-.94.02-.94 1.41 0 1.43.94-.02.94-1.41 0-1.43zm0 5.12c-.94.02-.94 1.42 0 1.43.94-.01.94-1.41 0-1.43zm0 5.12c-.94.02-.94 1.41 0 1.43.94-.02.94-1.41 0-1.43z" fill="#ffffffff" opacity="1" data-original="#ffffffff" class=""></path></g></svg>

